<?xml version="1.0" standalone="no"?><svg xmlns="http://www.w3.org/2000/svg" viewBox="0 0 1440 320"><path fill="#273036" fill-opacity="1" d="M0,160L26.7,144C53.3,128,107,96,160,96C213.3,96,267,128,320,133.3C373.3,139,427,117,480,101.3C533.3,85,587,75,640,106.7C693.3,139,747,213,800,224C853.3,235,907,181,960,181.3C1013.3,181,1067,235,1120,266.7C1173.3,299,1227,309,1280,304C1333.3,299,1387,277,1413,266.7L1440,256L1440,320L1413.3,320C1386.7,320,1333,320,1280,320C1226.7,320,1173,320,1120,320C1066.7,320,1013,320,960,320C906.7,320,853,320,800,320C746.7,320,693,320,640,320C586.7,320,533,320,480,320C426.7,320,373,320,320,320C266.7,320,213,320,160,320C106.7,320,53,320,27,320L0,320Z"></path></svg>